<?xml version="1.0" encoding="iso-8859-1"?>
<!-- Generator: Adobe Illustrator 19.0.0, SVG Export Plug-In . SVG Version: 6.00 Build 0)  -->
<svg version="1.1" id="Layer_1" xmlns="http://www.w3.org/2000/svg" xmlns:xlink="http://www.w3.org/1999/xlink" x="0px" y="0px"
	 viewBox="0 0 496.2 496.2" style="enable-background:new 0 0 496.2 496.2;" xml:space="preserve">
<path style="fill:#25B7D3;" d="M496.2,248.1C496.2,111.1,385.1,0,248.1,0S0,111.1,0,248.1s111.1,248.1,248.1,248.1
	S496.2,385.1,496.2,248.1z"/>
<path style="fill:#ABD9DF;" d="M387.6,189.8h-279c-3.1,0-5.7,2.5-5.7,5.7v189.6c0,3.1,2.5,5.7,5.7,5.7h279c3.1,0,5.7-2.5,5.7-5.7
	V195.4C393.3,192.3,390.7,189.8,387.6,189.8z"/>
<path style="fill:#71BABF;" d="M283.7,272.7c0,6.8-7.7,11.7-8.2,11.1c-5.8-6.7-15.6-11.7-25.7-11.7c-10.2,0-16.4,4.6-16.4,11.4
	c0,7.9,8.3,10,20,12.6c14,3,32.3,8.7,32.3,28.5c0,15.3-10.6,26-28.4,28.7v5.9c0,7-2.7,10.3-8.8,10.3h-0.8c-6.4,0-8.7-3.2-8.7-10.3
	v-5.6c-18.4-2-28.8-10.3-28.8-18.8c0-6.5,7.3-11.2,7.9-10.6c5.8,7,17,12.7,28.8,12.7c10.8,0,17-4.6,17-11.4
	c0-8.3-9.4-10.6-20.5-13.2c-13.4-2.9-31-8.2-31-28.2c0-14.6,10.3-25,26.7-28.1v-5.6c0-7,2.6-10.3,8.7-10.3h0.9
	c6.2,0,8.7,3.2,8.7,10.3v5.2C274.4,257.4,283.7,264.9,283.7,272.7z"/>
<path style="fill:#357180;" d="M412.6,198.9c-0.2-1.7-1.1-3.2-2.5-4.1l-71-60.1V93c0-3.1-2.5-5.7-5.7-5.7h-26.8
	c-3.1,0-5.7,2.5-5.7,5.7v9.4l-53.3-45.2c-2.2-1.8-5.3-1.8-7.4,0.1L85.8,195c-0.2,0.2-0.4,0.4-0.6,0.6c-1.3,1.3-1.8,3.1-1.6,4.8v13.4
	c0,3.1,2.5,5.7,5.7,5.7h317.8c3.1,0,5.7-2.5,5.7-5.7V200C412.7,199.6,412.7,199.3,412.6,198.9z"/>
<g>
</g>
<g>
</g>
<g>
</g>
<g>
</g>
<g>
</g>
<g>
</g>
<g>
</g>
<g>
</g>
<g>
</g>
<g>
</g>
<g>
</g>
<g>
</g>
<g>
</g>
<g>
</g>
<g>
</g>
</svg>
