<svg xmlns="http://www.w3.org/2000/svg" viewBox="0 0 501.551 501.551"><path d="M295.706 0H20.898C9.404 0 0 9.404 0 20.898v459.755c0 11.494 9.404 20.898 20.898 20.898h378.253c11.494 0 20.898-9.404 20.898-20.898v-356.31L295.706 0z" fill="#f2f2f2"/><g fill="#cdd6e0"><path d="M316.604 124.343h103.445L295.706 0v103.445c0 11.494 9.404 20.898 20.898 20.898zM216.294 174.498h154.645v24.033H216.294zM49.11 238.237h322.873v24.033H49.11zM49.11 303.02h322.873v24.033H49.11zM49.11 366.759h253.91v24.033H49.11zM49.11 430.498h82.547v24.033H49.11z"/></g><path fill="#84dbff" d="M49.11 47.02h115.984v152.555H49.11z"/><path d="M274.808 468.114l171.363-170.318-77.322-77.322-171.363 170.318c-1.045 1.045-2.09 2.09-3.135 4.18-1.045 1.045-1.045 3.135-1.045 4.18l-1.045 4.18-15.673 58.514-10.449 39.706 39.706-10.449 58.514-15.673 4.18-1.045c1.045 0 3.135-1.045 4.18-2.09-.001-2.091 1.044-2.091 2.089-4.181z" fill="#ffd15c"/><g fill="#ff7058"><path d="M212.114 423.184l179.722-180.767-22.988-22.988-171.362 171.363c-1.045 1.045-2.09 2.09-3.135 4.18-1.045 1.045-1.045 3.135-1.045 4.18l-1.045 4.18 19.853 19.852zM274.808 468.114l171.363-170.318-22.988-22.988-179.722 179.723 19.853 19.853 4.18-1.045c1.045 0 3.135-1.045 4.18-2.09 1.044-1.045 2.089-1.045 3.134-3.135z"/></g><path fill="#334a5e" d="M204.8 490.057L175.543 460.8l-10.449 39.706z"/><path d="M495.282 218.384l-48.065-48.065c-8.359-8.359-20.898-8.359-29.257 0l-25.078 25.078 77.322 77.322 25.078-25.078c8.359-7.314 8.359-20.898 0-29.257z" fill="#40596b"/><path fill="#f1543f" d="M423.616 274.238L243.288 454.465l-31.761-31.78L391.855 242.46z"/><path fill="#ffd15c" d="M391.963 196.36l77.6 77.556-23.636 23.65-77.6-77.556z"/></svg>