<?xml version="1.0" encoding="utf-8"?>
<!-- Generator: Adobe Illustrator 23.1.0, SVG Export Plug-In . SVG Version: 6.00 Build 0)  -->
<svg version="1.1" id="Layer_1" xmlns="http://www.w3.org/2000/svg" xmlns:xlink="http://www.w3.org/1999/xlink" x="0px" y="0px"
	 viewBox="0 0 175.9 44.8" style="enable-background:new 0 0 175.9 44.8;" xml:space="preserve">
<style type="text/css">
	.st0{fill:#006AB4;}
</style>
<g>
	<path class="st0" d="M43.5,1.4H2.6C2.3,1.4,2,1.6,2,2v40.9c0,0.3,0.3,0.6,0.6,0.6h40.9c0.3,0,0.6-0.3,0.6-0.6V2
		C44.1,1.6,43.9,1.4,43.5,1.4z M30.4,37.3c-1.9,0-2.7-0.4-3.9-1.7c-1.2-1.3-1.7-2.8-1.7-5.1c0-1.5,0.2-4.6,0.7-9.4l0.9-9.2h-6.8
		c-0.4,7.7-1,13.4-1.6,16.9c-0.6,3.6-1.3,5.9-2.1,6.9c-0.8,1-1.8,1.6-3.1,1.6c-1,0-1.8-0.3-2.5-0.9c-0.7-0.6-1-1.3-1-2.3
		c0-0.9,0.6-2.1,1.7-3.7c1.7-2.3,2.9-4.6,3.8-7c0.8-2.4,1.5-6.3,1.9-11.6h-2.2c-1.7,0-3.1,0.4-4,1.2c-0.9,0.8-1.8,1.9-2.6,3.3H6.8
		c0.6-2.3,1.4-4.1,2.4-5.6c1-1.5,2-2.4,3-2.9c1-0.4,2.9-0.7,5.5-0.7H38v4.7h-7.4L30,21.6c-0.1,1.7-0.2,3.1-0.2,4.4
		c0,3,0.6,4.9,1,5.4c0.5,0.5,0.9,1,1.9,1c2,0,3.8-1.3,4.2-3.9h1.1C37.4,34.4,34.4,37.3,30.4,37.3z"/>
	<g>
		<path class="st0" d="M74.5,16c0,4.9-3.6,8.5-8.9,8.5h-4.3c-0.3,0-0.5,0.1-0.5,0.5v11.9c0,0.3-0.1,0.5-0.5,0.5h-4.6
			c-0.3,0-0.5-0.1-0.5-0.5V7.5c0-0.3,0.1-0.5,0.5-0.5h9.8C71,7.1,74.5,10.6,74.5,16z M69,15.6c0-1.9-1.5-3.5-3.5-3.5h-4.3
			c-0.3,0-0.5,0.1-0.5,0.5V19c0,0.3,0.1,0.5,0.5,0.5h4.3c1.9,0,3.5-1.5,3.5-3.5V15.6z"/>
		<path class="st0" d="M98.7,36.9c0,0.2-0.1,0.4-0.5,0.4h-4.9c-0.1,0-0.3-0.1-0.4-0.3l-4.2-12.2l-0.4-0.3H84c-0.3,0-0.5,0.1-0.5,0.5
			v11.9c0,0.3-0.1,0.5-0.5,0.5h-4.6c-0.3,0-0.5-0.1-0.5-0.5V7.5c0-0.3,0.1-0.5,0.5-0.5h10.8c5.5,0,8.9,3.5,8.9,8.9v0.5
			c0,2.3-1.2,4.1-2.1,5.1c-0.9,0.8-2,1.4-2,1.8v0l4.6,13.2C98.7,36.8,98.7,36.9,98.7,36.9z M92.7,15.6c0-1.9-1.6-3.5-3.5-3.5H84
			c-0.3,0-0.5,0.1-0.5,0.5V19c0,0.3,0.1,0.5,0.5,0.5h5.3c1.9,0,3.5-1.5,3.5-3.5V15.6z"/>
		<path class="st0" d="M113.2,37.8h-2.4c-5.4,0-8.9-3.4-8.9-8.5V15.1c0-5.1,3.6-8.5,8.9-8.5h2.4c5.4,0,8.9,3.4,8.9,8.5v14.2
			C122.1,34.4,118.5,37.8,113.2,37.8z M116.6,15.1c0-2-1.5-3.5-3.4-3.5h-2.4c-1.9,0-3.5,1.5-3.5,3.5v14.2c0,1.9,1.5,3.5,3.5,3.5h2.4
			c1.9,0,3.4-1.5,3.4-3.5V15.1z"/>
		<path class="st0" d="M142.5,12.1h-5.2c-0.3,0-0.5,0.1-0.5,0.5v24.2c0,0.3-0.1,0.5-0.5,0.5h-4.5c-0.3,0-0.5-0.1-0.5-0.5V12.6
			c0-0.3-0.1-0.5-0.5-0.5h-5.2c-0.3,0-0.5-0.1-0.5-0.5V7.5c0-0.3,0.1-0.5,0.5-0.5h16.9c0.3,0,0.5,0.1,0.5,0.5v4.1
			C142.9,12,142.8,12.1,142.5,12.1z"/>
		<path class="st0" d="M163.8,37.3h-16.9c-0.3,0-0.5-0.1-0.5-0.5V7.5c0-0.3,0.1-0.5,0.5-0.5h16.9c0.3,0,0.5,0.1,0.5,0.5v4.1
			c0,0.3-0.1,0.5-0.5,0.5h-11.4c-0.3,0-0.5,0.1-0.5,0.5V19c0,0.3,0.1,0.5,0.5,0.5h9.4c0.3,0,0.5,0.1,0.5,0.5V24
			c0,0.3-0.1,0.5-0.5,0.5h-9.4c-0.3,0-0.5,0.1-0.5,0.5v6.8c0,0.3,0.1,0.5,0.5,0.5h11.4c0.3,0,0.5,0.1,0.5,0.5v4.1
			C164.3,37.2,164.2,37.3,163.8,37.3z"/>
		<path class="st0" d="M173.4,37.3h-4.6c-0.3,0-0.5-0.1-0.5-0.5V7.5c0-0.3,0.1-0.5,0.5-0.5h4.6c0.3,0,0.5,0.1,0.5,0.5v29.3
			C173.9,37.2,173.7,37.3,173.4,37.3z"/>
	</g>
</g>
</svg>
