<?xml version="1.0" encoding="utf-8"?>
<!-- Generator: Adobe Illustrator 23.1.0, SVG Export Plug-In . SVG Version: 6.00 Build 0)  -->
<svg version="1.1" id="Layer_1" xmlns="http://www.w3.org/2000/svg" xmlns:xlink="http://www.w3.org/1999/xlink" x="0px" y="0px"
	 viewBox="0 0 175.9 44.8" style="enable-background:new 0 0 175.9 44.8;" xml:space="preserve">
<style type="text/css">
	.st0{fill:#006AB4;}
</style>
<g>
	<path class="st0" d="M39.7,4.5H2.3C2,4.5,1.7,4.7,1.7,5v37.4C1.7,42.7,2,43,2.3,43h37.4c0.3,0,0.6-0.3,0.6-0.6V5
		C40.3,4.7,40,4.5,39.7,4.5z M27.7,37.4c-1.7,0-2.5-0.4-3.6-1.6c-1.1-1.2-1.6-2.6-1.6-4.7c0-1.4,0.2-4.2,0.6-8.6l0.8-8.4h-6.2
		c-0.4,7.1-0.9,12.2-1.5,15.5c-0.6,3.3-1.2,5.4-1.9,6.3c-0.7,1-1.6,1.4-2.8,1.4c-0.9,0-1.6-0.3-2.3-0.8c-0.6-0.5-0.9-1.2-0.9-2.1
		c0-0.8,0.5-1.9,1.6-3.3c1.5-2.1,2.7-4.2,3.4-6.4c0.8-2.2,1.3-5.8,1.7-10.6h-2c-1.6,0-2.8,0.4-3.7,1.1c-0.8,0.7-1.6,1.7-2.4,3h-1
		c0.6-2.1,1.3-3.8,2.2-5.1c0.9-1.3,1.8-2.2,2.8-2.6c0.9-0.4,2.6-0.6,5-0.6h18.6v4.3h-6.8L27.3,23c-0.1,1.5-0.2,2.9-0.2,4
		c0,2.7,0.5,4.5,0.9,4.9c0.4,0.5,0.9,0.9,1.8,0.9c1.9,0,3.5-1.2,3.8-3.5h1C34.1,34.7,31.4,37.4,27.7,37.4z"/>
	<g>
		<path class="st0" d="M70,37.3h-4.1c-0.3,0-0.4-0.1-0.4-0.4V14.7c0-0.3-0.1-0.4-0.4-0.4h-8.2c-0.3,0-0.4,0.1-0.4,0.4v22.2
			c0,0.3-0.1,0.4-0.4,0.4h-4.2c-0.3,0-0.4-0.1-0.4-0.4V10.1c0-0.3,0.1-0.4,0.4-0.4H70c0.3,0,0.4,0.1,0.4,0.4v26.8
			C70.4,37.2,70.3,37.3,70,37.3z"/>
		<path class="st0" d="M92.7,17.8c0,4.5-3.3,7.8-8.2,7.8h-4c-0.3,0-0.4,0.1-0.4,0.4v10.8c0,0.3-0.1,0.4-0.4,0.4h-4.2
			c-0.3,0-0.4-0.1-0.4-0.4V10.1c0-0.3,0.1-0.4,0.4-0.4h9C89.5,9.7,92.7,12.9,92.7,17.8z M87.7,17.4c0-1.7-1.4-3.2-3.2-3.2h-4
			c-0.3,0-0.4,0.1-0.4,0.4v5.8c0,0.3,0.1,0.4,0.4,0.4h4c1.8,0,3.2-1.4,3.2-3.2V17.4z"/>
		<path class="st0" d="M105.9,37.8h-2.2c-5,0-8.2-3.1-8.2-7.8V17c0-4.7,3.2-7.8,8.2-7.8h2.2c4.9,0,8.2,3.1,8.2,7.8v13
			C114.1,34.6,110.8,37.8,105.9,37.8z M109,17c0-1.8-1.4-3.2-3.1-3.2h-2.2c-1.8,0-3.2,1.4-3.2,3.2v13c0,1.8,1.4,3.2,3.2,3.2h2.2
			c1.8,0,3.1-1.4,3.1-3.2V17z"/>
		<path class="st0" d="M132.3,14.3h-4.8c-0.3,0-0.4,0.1-0.4,0.4v22.2c0,0.3-0.1,0.4-0.4,0.4h-4.1c-0.3,0-0.4-0.1-0.4-0.4V14.7
			c0-0.3-0.1-0.4-0.4-0.4h-4.8c-0.3,0-0.4-0.1-0.4-0.4v-3.7c0-0.3,0.1-0.4,0.4-0.4h15.5c0.3,0,0.4,0.1,0.4,0.4v3.7
			C132.7,14.2,132.6,14.3,132.3,14.3z"/>
		<path class="st0" d="M151.8,37.3h-15.5c-0.3,0-0.4-0.1-0.4-0.4V10.1c0-0.3,0.1-0.4,0.4-0.4h15.5c0.3,0,0.4,0.1,0.4,0.4v3.7
			c0,0.3-0.1,0.4-0.4,0.4h-10.4c-0.3,0-0.4,0.1-0.4,0.4v5.8c0,0.3,0.1,0.4,0.4,0.4h8.6c0.3,0,0.4,0.1,0.4,0.4v3.7
			c0,0.3-0.1,0.4-0.4,0.4h-8.6c-0.3,0-0.4,0.1-0.4,0.4v6.2c0,0.3,0.1,0.4,0.4,0.4h10.4c0.3,0,0.4,0.1,0.4,0.4v3.7
			C152.2,37.2,152.1,37.3,151.8,37.3z"/>
		<path class="st0" d="M155.9,36.9V10.1c0-0.3,0.2-0.4,0.4-0.4h4c0.3,0,0.4,0.1,0.4,0.4l-0.2,17.6l9-17.8l0.4-0.2h3.7
			c0.3,0,0.4,0.1,0.4,0.4v26.8c0,0.3-0.1,0.4-0.4,0.4h-4.1c-0.3,0-0.4-0.1-0.4-0.4l0.2-17.4l-9,17.6l-0.4,0.2h-3.6
			C156,37.3,155.9,37.2,155.9,36.9z"/>
		<path class="st0" d="M170.3,3.1V2.3c0-0.3-0.1-0.4-0.4-0.4h-2.3c-0.3,0-0.4,0.1-0.4,0.4l0,0c0,0.7-0.5,1.2-1.2,1.2h-1.9
			c-0.7,0-1.3-0.6-1.3-1.2l0,0c0-0.3-0.1-0.4-0.4-0.4h-2.2c-0.3,0-0.4,0.1-0.4,0.4v0.8c0,2.5,1.7,4.2,4.4,4.2h1.9
			C168.6,7.3,170.3,5.6,170.3,3.1z"/>
	</g>
</g>
</svg>
