<?xml version="1.0" encoding="utf-8"?>
<!-- Generator: Adobe Illustrator 23.1.0, SVG Export Plug-In . SVG Version: 6.00 Build 0)  -->
<svg version="1.1" id="Layer_1" xmlns="http://www.w3.org/2000/svg" xmlns:xlink="http://www.w3.org/1999/xlink" x="0px" y="0px"
	 viewBox="0 0 175.9 44.8" style="enable-background:new 0 0 175.9 44.8;" xml:space="preserve">
<style type="text/css">
	.st0{fill:#FFFFFF;}
</style>
<g>
	<path class="st0" d="M40.3,4.7h-37C3,4.7,2.7,4.9,2.7,5.2v37c0,0.3,0.2,0.6,0.5,0.6h37c0.3,0,0.5-0.2,0.5-0.6v-37
		C40.8,4.9,40.6,4.7,40.3,4.7z M28.4,37.2c-1.7,0-2.4-0.4-3.5-1.6c-1.1-1.2-1.5-2.6-1.5-4.6c0-1.3,0.2-4.2,0.6-8.5l0.8-8.3h-6.1
		c-0.4,7-0.9,12.1-1.5,15.3c-0.6,3.2-1.2,5.3-1.9,6.2c-0.7,0.9-1.6,1.4-2.8,1.4c-0.9,0-1.6-0.3-2.2-0.8c-0.6-0.5-0.9-1.2-0.9-2
		c0-0.8,0.5-1.9,1.6-3.3c1.5-2,2.6-4.2,3.4-6.3c0.7-2.2,1.3-5.7,1.7-10.5h-2c-1.6,0-2.8,0.3-3.6,1.1c-0.8,0.7-1.6,1.7-2.4,3h-1
		c0.6-2.1,1.3-3.7,2.2-5.1c0.9-1.3,1.8-2.2,2.7-2.6c0.9-0.4,2.6-0.6,5-0.6h18.4v4.2h-6.7L28,23c-0.1,1.5-0.2,2.8-0.2,3.9
		c0,2.7,0.5,4.4,0.9,4.9c0.4,0.5,0.9,0.9,1.7,0.9c1.8,0,3.5-1.2,3.8-3.5h1C34.7,34.5,32.1,37.2,28.4,37.2z"/>
	<g>
		<path class="st0" d="M70.2,37.2h-4.1c-0.3,0-0.4-0.1-0.4-0.4V14.8c0-0.3-0.1-0.4-0.4-0.4h-8.1c-0.3,0-0.4,0.1-0.4,0.4v21.9
			c0,0.3-0.1,0.4-0.4,0.4h-4.1c-0.3,0-0.4-0.1-0.4-0.4V10.3c0-0.3,0.1-0.4,0.4-0.4h18c0.3,0,0.4,0.1,0.4,0.4v26.5
			C70.6,37,70.5,37.2,70.2,37.2z"/>
		<path class="st0" d="M92.6,17.9c0,4.5-3.3,7.7-8.1,7.7h-3.9c-0.3,0-0.4,0.1-0.4,0.4v10.7c0,0.3-0.1,0.4-0.4,0.4h-4.1
			c-0.3,0-0.4-0.1-0.4-0.4V10.3c0-0.3,0.1-0.4,0.4-0.4h8.9C89.5,9.8,92.6,13,92.6,17.9z M87.7,17.5c0-1.7-1.4-3.1-3.1-3.1h-3.9
			c-0.3,0-0.4,0.1-0.4,0.4v5.8c0,0.3,0.1,0.4,0.4,0.4h3.9c1.7,0,3.1-1.4,3.1-3.1V17.5z"/>
		<path class="st0" d="M105.7,37.6h-2.1c-4.9,0-8.1-3.1-8.1-7.7V17.1c0-4.6,3.2-7.7,8.1-7.7h2.1c4.9,0,8.1,3.1,8.1,7.7v12.8
			C113.8,34.5,110.6,37.6,105.7,37.6z M108.8,17.1c0-1.8-1.3-3.1-3.1-3.1h-2.1c-1.7,0-3.1,1.4-3.1,3.1v12.8c0,1.7,1.4,3.1,3.1,3.1
			h2.1c1.7,0,3.1-1.3,3.1-3.1V17.1z"/>
		<path class="st0" d="M131.7,14.4H127c-0.3,0-0.4,0.1-0.4,0.4v21.9c0,0.3-0.1,0.4-0.4,0.4h-4.1c-0.3,0-0.4-0.1-0.4-0.4V14.8
			c0-0.3-0.1-0.4-0.4-0.4h-4.7c-0.3,0-0.4-0.1-0.4-0.4v-3.7c0-0.3,0.1-0.4,0.4-0.4h15.3c0.3,0,0.4,0.1,0.4,0.4v3.7
			C132.2,14.2,132,14.4,131.7,14.4z"/>
		<path class="st0" d="M151,37.2h-15.3c-0.3,0-0.4-0.1-0.4-0.4V10.3c0-0.3,0.1-0.4,0.4-0.4H151c0.3,0,0.4,0.1,0.4,0.4v3.7
			c0,0.3-0.1,0.4-0.4,0.4h-10.3c-0.3,0-0.4,0.1-0.4,0.4v5.8c0,0.3,0.1,0.4,0.4,0.4h8.5c0.3,0,0.4,0.1,0.4,0.4v3.7
			c0,0.3-0.1,0.4-0.4,0.4h-8.5c-0.3,0-0.4,0.1-0.4,0.4v6.2c0,0.3,0.1,0.4,0.4,0.4H151c0.3,0,0.4,0.1,0.4,0.4v3.7
			C151.5,37,151.3,37.2,151,37.2z"/>
		<path class="st0" d="M155.1,36.7V10.3c0-0.3,0.2-0.4,0.4-0.4h4c0.3,0,0.4,0.1,0.4,0.4l-0.2,17.4l8.8-17.6l0.4-0.2h3.6
			c0.3,0,0.4,0.1,0.4,0.4v26.5c0,0.3-0.1,0.4-0.4,0.4h-4c-0.3,0-0.4-0.1-0.4-0.4l0.2-17.2l-8.9,17.4l-0.4,0.2h-3.6
			C155.2,37.2,155.1,37,155.1,36.7z"/>
		<path class="st0" d="M169.4,3.4V2.5c0-0.3-0.1-0.4-0.4-0.4h-2.3c-0.3,0-0.4,0.1-0.4,0.4l0,0c0,0.7-0.5,1.2-1.2,1.2h-1.9
			c-0.7,0-1.3-0.6-1.3-1.2l0,0c0-0.3-0.1-0.4-0.4-0.4h-2.2c-0.3,0-0.4,0.1-0.4,0.4v0.8c0,2.5,1.7,4.1,4.3,4.1h1.9
			C167.7,7.5,169.4,5.8,169.4,3.4z"/>
	</g>
</g>
</svg>
