<svg width="97.041" height="97" xmlns="http://www.w3.org/2000/svg">
 <!-- Created with Method Draw - http://github.com/duopixel/Method-Draw/ -->
 <g>
  <title>Layer 1</title>
  <path id="svg_1" d="m89.055,5.678l-81.838,0c-0.672,0 -1.217,0.549 -1.217,1.22l0,81.834c0,0.672 0.545,1.221 1.217,1.221l81.838,0c0.672,0 1.217,-0.549 1.217,-1.221l0,-81.834c-0.001,-0.671 -0.545,-1.22 -1.217,-1.22zm-26.209,71.984c-3.736,0 -5.379,-0.867 -7.854,-3.439s-3.408,-5.689 -3.408,-10.193c0,-2.973 0.447,-9.258 1.34,-18.855l1.719,-18.344l-13.504,0c-0.893,15.457 -1.965,26.754 -3.219,33.887c-1.252,7.137 -2.631,11.742 -4.141,13.824c-1.508,2.082 -3.557,3.121 -6.148,3.121c-1.951,0 -3.598,-0.574 -4.936,-1.719c-1.336,-1.148 -2.008,-2.654 -2.008,-4.523c0,-1.785 1.148,-4.225 3.441,-7.324c3.355,-4.504 5.859,-9.186 7.518,-14.047c1.656,-4.863 2.908,-12.604 3.758,-23.219l-4.33,0c-3.482,0 -6.148,0.773 -7.996,2.324c-1.85,1.551 -3.6,3.77 -5.254,6.656l-2.295,0c1.232,-4.543 2.824,-8.281 4.779,-11.211c1.951,-2.93 3.957,-4.842 6.02,-5.734c2.057,-0.891 5.723,-1.336 10.986,-1.336l40.645,0l0,9.301l-14.779,0l-1.275,19.363c-0.254,3.355 -0.383,6.266 -0.383,8.727c0,5.904 1.145,9.781 2.07,10.797c0.926,1.02 1.889,1.945 3.842,1.945c4.076,0 7.658,-2.57 8.42,-7.707l2.295,0c-1.403,11.804 -7.278,17.706 -15.303,17.706z" fill="#FFFFFF"/>
 </g>
</svg>